<svg width="30" height="30" viewBox="0 0 30 30" fill="none" xmlns="http://www.w3.org/2000/svg">
<path d="M14.996 9.99836C12.2417 9.99836 9.99393 12.2461 9.99393 15.0005C9.99393 17.7548 12.2417 20.0026 14.996 20.0026C17.7503 20.0026 19.998 17.7548 19.998 15.0005C19.998 12.2461 17.7503 9.99836 14.996 9.99836ZM29.9983 15.0005C29.9983 12.9291 30.0171 10.8765 29.9008 8.8088C29.7844 6.40718 29.2366 4.27574 27.4804 2.51956C25.7205 0.759616 23.5929 0.215499 21.1913 0.0991703C19.1199 -0.0171583 17.0673 0.00160445 14.9997 0.00160445C12.9284 0.00160445 10.8758 -0.0171583 8.80815 0.0991703C6.40657 0.215499 4.27517 0.763369 2.51902 2.51956C0.759114 4.27949 0.215007 6.40718 0.0986802 8.8088C-0.0176462 10.8802 0.00111615 12.9328 0.00111615 15.0005C0.00111615 17.0681 -0.0176462 19.1245 0.0986802 21.1922C0.215007 23.5938 0.762867 25.7252 2.51902 27.4814C4.27893 29.2414 6.40657 29.7855 8.80815 29.9018C10.8795 30.0181 12.9321 29.9994 14.9997 29.9994C17.0711 29.9994 19.1237 30.0181 21.1913 29.9018C23.5929 29.7855 25.7243 29.2376 27.4804 27.4814C29.2403 25.7215 29.7844 23.5938 29.9008 21.1922C30.0208 19.1245 29.9983 17.0719 29.9983 15.0005ZM14.996 22.6969C10.7369 22.6969 7.29966 19.2596 7.29966 15.0005C7.29966 10.7414 10.7369 7.30404 14.996 7.30404C19.255 7.30404 22.6923 10.7414 22.6923 15.0005C22.6923 19.2596 19.255 22.6969 14.996 22.6969ZM23.0075 8.78629C22.0131 8.78629 21.21 7.98325 21.21 6.98882C21.21 5.9944 22.0131 5.19136 23.0075 5.19136C24.0019 5.19136 24.8049 5.9944 24.8049 6.98882C24.8052 7.22495 24.7589 7.45882 24.6687 7.67703C24.5785 7.89525 24.4461 8.09352 24.2791 8.26048C24.1122 8.42745 23.9139 8.55984 23.6957 8.65007C23.4775 8.7403 23.2436 8.78658 23.0075 8.78629Z" fill="black"/>
</svg>
