<svg width="48" height="48" viewBox="0 0 48 48" fill="none" xmlns="http://www.w3.org/2000/svg">
<g clip-path="url(#clip0_99_162)">
<path d="M28.5938 24C28.5938 26.5371 26.5371 28.5938 24 28.5938C21.4629 28.5938 19.4062 26.5371 19.4062 24C19.4062 21.4629 21.4629 19.4062 24 19.4062C26.5371 19.4062 28.5938 21.4629 28.5938 24Z" fill="white"/>
<path d="M34.7446 15.8724C34.5238 15.274 34.1715 14.7324 33.7137 14.2878C33.2692 13.8301 32.7279 13.4778 32.1292 13.257C31.6436 13.0684 30.9141 12.8439 29.5704 12.7827C28.1169 12.7164 27.6812 12.7021 24.0015 12.7021C20.3214 12.7021 19.8856 12.7161 18.4325 12.7823C17.0889 12.8439 16.359 13.0684 15.8738 13.257C15.275 13.4778 14.7334 13.8301 14.2892 14.2878C13.8314 14.7324 13.4791 15.2737 13.2579 15.8724C13.0693 16.358 12.8448 17.0879 12.7837 18.4315C12.7174 19.8846 12.7031 20.3204 12.7031 24.0005C12.7031 27.6802 12.7174 28.116 12.7837 29.5695C12.8448 30.9131 13.0693 31.6426 13.2579 32.1282C13.4791 32.7269 13.8311 33.2682 14.2888 33.7128C14.7334 34.1705 15.2747 34.5228 15.8734 34.7437C16.359 34.9326 17.0889 35.1571 18.4325 35.2183C19.8856 35.2845 20.321 35.2985 24.0011 35.2985C27.6815 35.2985 28.1173 35.2845 29.5701 35.2183C30.9137 35.1571 31.6436 34.9326 32.1292 34.7437C33.3311 34.28 34.281 33.3301 34.7446 32.1282C34.9332 31.6426 35.1577 30.9131 35.2192 29.5695C35.2855 28.116 35.2994 27.6802 35.2994 24.0005C35.2994 20.3204 35.2855 19.8846 35.2192 18.4315C35.1581 17.0879 34.9336 16.358 34.7446 15.8724V15.8724ZM24.0015 31.0768C20.0929 31.0768 16.9244 27.9087 16.9244 24.0001C16.9244 20.0916 20.0929 16.9235 24.0015 16.9235C27.9097 16.9235 31.0781 20.0916 31.0781 24.0001C31.0781 27.9087 27.9097 31.0768 24.0015 31.0768ZM31.3579 18.2975C30.4446 18.2975 29.7041 17.557 29.7041 16.6437C29.7041 15.7303 30.4446 14.9899 31.3579 14.9899C32.2712 14.9899 33.0117 15.7303 33.0117 16.6437C33.0114 17.557 32.2712 18.2975 31.3579 18.2975Z" fill="white"/>
<path d="M24 0C10.7472 0 0 10.7472 0 24C0 37.2528 10.7472 48 24 48C37.2528 48 48 37.2528 48 24C48 10.7472 37.2528 0 24 0ZM37.6981 29.6818C37.6315 31.1488 37.3982 32.1504 37.0576 33.0271C36.3417 34.8783 34.8783 36.3417 33.0271 37.0576C32.1508 37.3982 31.1488 37.6311 29.6821 37.6981C28.2125 37.7651 27.743 37.7812 24.0004 37.7812C20.2573 37.7812 19.7882 37.7651 18.3182 37.6981C16.8516 37.6311 15.8496 37.3982 14.9733 37.0576C14.0533 36.7115 13.2206 36.1692 12.5321 35.4679C11.8312 34.7798 11.2888 33.9467 10.9427 33.0271C10.6022 32.1508 10.3689 31.1488 10.3022 29.6821C10.2345 28.2122 10.2188 27.7427 10.2188 24C10.2188 20.2573 10.2345 19.7878 10.3019 18.3182C10.3685 16.8512 10.6014 15.8496 10.942 14.9729C11.2881 14.0533 11.8308 13.2202 12.5321 12.5321C13.2202 11.8308 14.0533 11.2885 14.9729 10.9424C15.8496 10.6018 16.8512 10.3689 18.3182 10.3019C19.7878 10.2349 20.2573 10.2188 24 10.2188C27.7427 10.2188 28.2122 10.2349 29.6818 10.3022C31.1488 10.3689 32.1504 10.6018 33.0271 10.942C33.9467 11.2881 34.7798 11.8308 35.4683 12.5321C36.1692 13.2206 36.7119 14.0533 37.0576 14.9729C37.3986 15.8496 37.6315 16.8512 37.6985 18.3182C37.7655 19.7878 37.7812 20.2573 37.7812 24C37.7812 27.7427 37.7655 28.2122 37.6981 29.6818V29.6818Z" fill="white"/>
</g>
<defs>
<clipPath id="clip0_99_162">
<rect width="48" height="48" fill="white"/>
</clipPath>
</defs>
</svg>
