<svg width="48" height="48" viewBox="0 0 48 48" fill="none" xmlns="http://www.w3.org/2000/svg">
<circle cx="24" cy="24" r="24" fill="white"/>
<path d="M11.2727 29.0909H36.7273M11.2727 18.9091H36.7273M24 38C31.732 38 38 31.732 38 24C38 16.268 31.732 10 24 10C16.268 10 10 16.268 10 24C10 31.732 16.268 38 24 38ZM24 38C27.8182 38 29.0909 31.6364 29.0909 24C29.0909 16.3636 27.8182 10 24 10C20.1818 10 18.9091 16.3636 18.9091 24C18.9091 31.6364 20.1818 38 24 38Z" stroke="black" stroke-width="2"/>
</svg>
