<svg width="48" height="49" viewBox="0 0 48 49" fill="none" xmlns="http://www.w3.org/2000/svg">
<path d="M24 48.8116C37.258 48.8116 48 38.0732 48 24.8196C48 11.5661 37.258 0.827637 24 0.827637C10.742 0.827637 0 11.5661 0 24.8196C0 38.0732 10.742 48.8116 24 48.8116ZM10.982 24.2998L34.122 15.3808C35.196 14.9929 36.134 15.6427 35.786 17.2662L35.788 17.2642L31.848 35.82C31.556 37.1355 30.774 37.4554 29.68 36.8356L23.68 32.4151L20.786 35.2022C20.466 35.5221 20.196 35.792 19.576 35.792L20.002 29.688L31.122 19.6454C31.606 19.2195 31.014 18.9796 30.376 19.4034L16.634 28.0526L10.71 26.2052C9.424 25.7973 9.396 24.9196 10.982 24.2998V24.2998Z" fill="white"/>
</svg>
