<svg width="30" height="24" viewBox="0 0 30 24" fill="none" xmlns="http://www.w3.org/2000/svg">
<path d="M29.8072 5.65493C29.8072 2.99165 27.8675 0.849189 25.4708 0.849189C22.2243 0.695903 18.9133 0.636719 15.5297 0.636719H14.4748C11.0994 0.636719 7.78259 0.695903 4.53608 0.849781C2.14516 0.849781 0.20546 3.00408 0.20546 5.66736C0.0589575 7.77372 -0.00315971 9.88067 0.000356358 11.9876C-0.00550376 14.0946 0.0609109 16.2035 0.1996 18.3144C0.1996 20.9777 2.1393 23.1379 4.53022 23.1379C7.94081 23.2977 11.4393 23.3687 14.9964 23.3628C18.5593 23.3746 22.0481 23.2997 25.4626 23.1379C27.8593 23.1379 29.799 20.9777 29.799 18.3144C29.9397 16.2015 30.0041 14.0946 29.9983 11.9817C30.0116 9.87475 29.9479 7.76583 29.8072 5.65493ZM12.1308 17.7936V6.16391L20.628 11.9758L12.1308 17.7936Z" fill="black"/>
</svg>
