<svg width="20" height="14" viewBox="0 0 20 14" fill="none" xmlns="http://www.w3.org/2000/svg">
<path d="M19.9259 6.76327C19.7684 6.53409 15.9834 1.1665 9.99995 1.1665C4.86569 1.1665 0.29062 6.50327 0.0981168 6.73077C-0.0327056 6.88577 -0.0327056 7.11328 0.0981168 7.2691C0.29062 7.4966 4.86569 12.8334 9.99995 12.8334C15.1342 12.8334 19.7092 7.4966 19.9017 7.2691C20.0226 7.12578 20.0334 6.91827 19.9259 6.76327ZM9.99995 12C5.88407 12 1.97065 8.07497 0.97649 6.99996C1.96901 5.92412 5.87825 1.99988 9.99995 1.99988C14.8158 1.99988 18.2151 5.91912 19.0451 6.97745C18.0867 8.01829 14.1508 12 9.99995 12Z" fill="white"/>
<path d="M10.0013 3.6665C8.16299 3.6665 6.66797 5.16153 6.66797 6.99988C6.66797 8.83823 8.16299 10.3333 10.0013 10.3333C11.8397 10.3333 13.3347 8.83823 13.3347 6.99988C13.3347 5.16153 11.8397 3.6665 10.0013 3.6665ZM10.0013 9.49996C8.623 9.49996 7.5013 8.37826 7.5013 6.99992C7.5013 5.62158 8.623 4.49988 10.0013 4.49988C11.3797 4.49988 12.5014 5.62158 12.5014 6.99992C12.5014 8.37826 11.3797 9.49996 10.0013 9.49996Z" fill="white"/>
</svg>
