<svg width="48" height="48" viewBox="0 0 48 48" fill="none" xmlns="http://www.w3.org/2000/svg">
<path d="M47 24C47 34.0309 40.5825 42.5561 31.6281 45.7038V30.3063H35.8031H36.682L36.7948 29.4347L37.573 23.4253L37.7191 22.2969H36.5813H31.6281V19.4719C31.6281 18.6492 31.756 18.2344 31.9465 18.0088C32.1051 17.821 32.4914 17.5563 33.6 17.5563H36.75H37.75V16.5563V11.1938V10.3222L36.8866 10.2031C36.2875 10.1205 34.3561 9.95938 32.1281 9.95938C29.6376 9.95938 27.437 10.7232 25.8563 12.2862C24.2725 13.8521 23.4219 16.1105 23.4219 18.8812V22.3063H19.2656H18.2656V23.3063V29.3156V30.3156H19.2656H23.4219V46.9929C10.9851 46.6862 1 36.5107 1 24C1 11.296 11.296 1 24 1C36.704 1 47 11.296 47 24Z" fill="black" stroke="black" stroke-width="2"/>
</svg>
