<svg width="48" height="48" viewBox="0 0 48 48" fill="none" xmlns="http://www.w3.org/2000/svg">
<path d="M18.125 34.9475H19.125V33.9475V18.3075V17.3075H18.125H16.501C17.197 17.1696 17.8076 16.8565 18.2844 16.3916C18.942 15.7504 19.285 14.8779 19.285 13.955V13.9441L19.2848 13.9331C19.2647 13.0169 18.9302 12.1534 18.2864 11.5159C17.6386 10.8746 16.7439 10.5275 15.7275 10.5275C14.7143 10.5275 13.8087 10.8722 13.1507 11.5066C12.4924 12.1411 12.1375 13.013 12.1375 13.955C12.1375 15.5978 13.2173 16.9692 14.8621 17.3075H13.265H12.265V18.3075V33.9475V34.9475H13.265H18.125ZM35.875 34.9475H36.875V33.9475V24.7C36.875 22.2315 36.2314 20.278 35.0202 18.9308C33.7988 17.5722 32.1096 16.9525 30.28 16.9525C28.4974 16.9525 27.1234 17.5539 26.1347 18.3001L26.1248 18.2031L26.0328 17.305H25.13H20.9075H19.8602L19.9086 18.3512C19.9732 19.7491 20.035 21.3644 20.035 23.295V33.945V34.945H21.035H25.8975H26.8975V33.945V24.9275C26.8975 24.4836 26.9368 24.2103 26.9854 24.0914L26.9855 24.0914L26.9901 24.0798C27.2542 23.411 27.7675 22.8925 28.5525 22.8925C29.1268 22.8925 29.416 23.0919 29.6104 23.3839C29.849 23.7423 30.015 24.3589 30.015 25.28V33.9475V34.9475H31.015H35.875ZM1 24C1 11.2973 11.2973 1 24 1C36.7027 1 47 11.2973 47 24C47 36.7027 36.7027 47 24 47C11.2973 47 1 36.7027 1 24Z" fill="black" stroke="black" stroke-width="2"/>
</svg>
