<svg width="48" height="48" viewBox="0 0 48 48" fill="none" xmlns="http://www.w3.org/2000/svg">
<path d="M10.6222 22.5469L10.6179 22.5486C10.1558 22.7293 9.74629 22.9526 9.42978 23.2305C9.11867 23.5037 8.81859 23.9029 8.77282 24.4252C8.72423 24.9796 8.98138 25.4301 9.30152 25.7314C9.60741 26.0193 10.0031 26.2108 10.4076 26.3392L10.4122 26.3406L16.3362 28.1886L16.7765 28.326L17.1668 28.0802L24.4837 23.4735L19.3316 28.128L19.0325 28.3982L19.0044 28.8004L18.5784 34.9064L18.5038 35.976H19.576C20.0474 35.976 20.4458 35.8691 20.7959 35.6656C21.0961 35.4912 21.3247 35.262 21.4701 35.1162C21.4757 35.1105 21.4813 35.105 21.4867 35.0996L23.766 32.9037L29.0867 36.825L29.1349 36.8605L29.1869 36.89C29.8511 37.2664 30.6824 37.5089 31.4773 37.1489C32.2681 36.7908 32.6504 36.004 32.8243 35.2206L32.8243 35.2206L32.8262 35.2116L36.7658 16.6515C36.7659 16.6511 36.766 16.6507 36.7661 16.6503C36.9774 15.6627 36.856 14.6801 36.1851 14.0283C35.5026 13.3652 34.5567 13.3377 33.7822 13.6175L33.7722 13.6211L33.7622 13.625L10.6222 22.5469ZM47 24C47 36.7057 36.7057 47 24 47C11.2943 47 1 36.7057 1 24C1 11.2943 11.2943 1 24 1C36.7057 1 47 11.2943 47 24Z" stroke="black" stroke-width="2"/>
</svg>
